<svg width="50" height="50" viewBox="0 0 50 50" fill="none" xmlns="http://www.w3.org/2000/svg">
<g clip-path="url(#clip0_1039_3853)">
<path d="M40 40C41.3261 40 42.5979 40.5268 43.5355 41.4645C44.4732 42.4021 45 43.6739 45 45C45 46.3261 44.4732 47.5979 43.5355 48.5355C42.5979 49.4732 41.3261 50 40 50C38.6739 50 37.4021 49.4732 36.4645 48.5355C35.5268 47.5979 35 46.3261 35 45C35 42.225 37.225 40 40 40ZM0 2.5C0 1.11929 1.11929 0 2.5 0H5.41264C7.09864 0 8.63284 0.974131 9.35 2.5C10.0672 4.02587 11.6014 5 13.2874 5H47.5C48.163 5 48.7989 5.26339 49.2678 5.73223C49.7366 6.20107 50 6.83696 50 7.5C50 7.925 49.875 8.35 49.7 8.75L40.75 24.925C39.9 26.45 38.25 27.5 36.375 27.5H20.7008C18.8803 27.5 17.2037 28.4895 16.3237 30.0832L15.5769 31.4357C15.5259 31.5282 15.487 31.6269 15.4614 31.7294C15.4372 31.8261 15.4192 31.9268 15.4429 32.0237C15.4699 32.1338 15.5266 32.2355 15.6081 32.3169C15.7253 32.4342 15.8842 32.5 16.05 32.5H42.5C43.8807 32.5 45 33.6193 45 35C45 36.3807 43.8807 37.5 42.5 37.5H15C13.6739 37.5 12.4021 36.9732 11.4645 36.0355C10.5268 35.0979 10 33.8261 10 32.5C10 31.625 10.225 30.8 10.6 30.1L12.7526 26.2222C13.5355 24.8118 13.5899 23.1103 12.8985 21.6528L5.83017 6.75027C5.32317 5.68135 4.24589 5 3.06283 5H2.5C1.11929 5 0 3.88071 0 2.5ZM15 40C16.3261 40 17.5979 40.5268 18.5355 41.4645C19.4732 42.4021 20 43.6739 20 45C20 46.3261 19.4732 47.5979 18.5355 48.5355C17.5979 49.4732 16.3261 50 15 50C13.6739 50 12.4021 49.4732 11.4645 48.5355C10.5268 47.5979 10 46.3261 10 45C10 42.225 12.225 40 15 40ZM34.5591 22.5C36.3744 22.5 38.047 21.5162 38.9291 19.9297L40.3191 17.4297C42.1721 14.097 39.7623 10 35.9491 10H20.739C17.0714 10 14.6519 13.8175 16.2173 17.1342L17.3973 19.6342C18.2232 21.3838 19.9843 22.5 21.919 22.5H34.5591Z" fill="#C5B6CD"/>
</g>
<defs>
<clipPath id="clip0_1039_3853">
<rect width="50" height="50" rx="10" fill="white"/>
</clipPath>
</defs>
</svg>
