<svg width="35" height="35" viewBox="0 0 35 35" fill="none" xmlns="http://www.w3.org/2000/svg">
<path fill-rule="evenodd" clip-rule="evenodd" d="M8.19875 26.6797C7.61219 27.039 7.1715 27.5941 6.95454 28.2469C6.73758 28.8996 6.7583 29.608 7.01305 30.247C7.2678 30.886 7.74018 31.4143 8.34674 31.7387C8.9533 32.0632 9.655 32.1628 10.3279 32.0199C11.0008 31.8771 11.6015 31.5011 12.024 30.9583C12.4465 30.4154 12.6635 29.7407 12.6368 29.0534C12.61 28.366 12.3412 27.7103 11.8778 27.2019C11.4144 26.6936 10.7862 26.3654 10.1043 26.2753C10.0679 26.1448 10.0345 26.0135 10.0042 25.8815C9.87122 25.2809 9.76739 24.6742 9.69306 24.0635C9.61274 23.4462 9.56729 22.825 9.55694 22.2026C9.55493 22.0317 9.55979 21.8608 9.57153 21.6903C9.94486 21.5833 10.3201 21.4861 10.6944 21.4015C11.1232 21.3043 11.3779 21.8099 11.5831 22.2201L11.6667 22.3844H23.0893C23.3119 21.9625 23.8165 21.2897 24.3056 21.4015C24.8267 21.5201 25.3507 21.6611 25.8699 21.8225L25.8669 21.8235C25.8669 21.8235 25.865 21.8215 25.8669 21.8254C25.8708 21.839 25.8922 21.9032 25.9136 22.0393C25.9379 22.1968 25.9544 22.401 25.9622 22.6469C25.9758 23.1369 25.9476 23.7329 25.8903 24.3338C25.8319 24.9336 25.7454 25.514 25.6482 25.9719C25.6268 26.074 25.6054 26.1664 25.584 26.25H24.3056C24.1251 26.2501 23.9481 26.3004 23.7946 26.3954C23.6411 26.4904 23.5171 26.6262 23.4364 26.7876L22.4642 28.7321C22.3965 28.867 22.3612 29.0158 22.3611 29.1667V31.1111C22.3611 31.369 22.4635 31.6163 22.6459 31.7986C22.8282 31.9809 23.0755 32.0833 23.3333 32.0833H25.2778V30.1389H24.3056V29.3961L24.9064 28.1944H27.5936L28.1944 29.3961V30.1389H27.2222V32.0833H29.1667C29.4245 32.0833 29.6718 31.9809 29.8541 31.7986C30.0365 31.6163 30.1389 31.369 30.1389 31.1111V29.1667C30.1388 29.0158 30.1035 28.867 30.0358 28.7321L29.0636 26.7876C28.9829 26.6262 28.8589 26.4904 28.7054 26.3954C28.5519 26.3004 28.375 26.2501 28.1944 26.25H27.5761C27.6801 25.7318 27.7667 25.1271 27.825 24.5204C27.8892 23.8651 27.9222 23.1856 27.9057 22.5925L27.9047 22.5653C31.7819 24.2035 35 26.8975 35 29.7208V35H0V29.7208C0 26.7731 3.50972 23.9653 7.61347 22.3543C7.62417 22.959 7.68153 23.6425 7.76417 24.3046C7.85361 25.0192 7.97514 25.7299 8.10931 26.3151C8.13847 26.4406 8.16764 26.5621 8.19875 26.6797ZM9.72222 30.1535C10.2453 30.1535 10.6944 29.7257 10.6944 29.1667C10.6944 28.6086 10.2453 28.1799 9.72222 28.1799C9.19917 28.1799 8.75 28.6076 8.75 29.1667C8.75 29.7247 9.19917 30.1535 9.72222 30.1535ZM17.5 17.5C19.5628 17.5 21.5411 16.6806 22.9997 15.2219C24.4583 13.7633 25.2778 11.785 25.2778 9.72222C25.2778 7.65943 24.4583 5.68112 22.9997 4.2225C21.5411 2.76389 19.5628 1.94444 17.5 1.94444C15.4372 1.94444 13.4589 2.76389 12.0003 4.2225C10.5417 5.68112 9.72222 7.65943 9.72222 9.72222C9.72222 11.785 10.5417 13.7633 12.0003 15.2219C13.4589 16.6806 15.4372 17.5 17.5 17.5ZM17.5 19.4444C22.8696 19.4444 27.2222 15.0918 27.2222 9.72222C27.2222 4.35264 22.8696 0 17.5 0C12.1304 0 7.77778 4.35264 7.77778 9.72222C7.77778 15.0918 12.1304 19.4444 17.5 19.4444Z" fill="white"/>
</svg>
