<svg width="36" height="35" viewBox="0 0 36 35" fill="none" xmlns="http://www.w3.org/2000/svg">
<path fill-rule="evenodd" clip-rule="evenodd" d="M8.70891 26.3151C8.75938 26.5322 8.66519 26.7561 8.49171 26.8959C8.05812 27.2453 7.73144 27.7135 7.55415 28.2469C7.33719 28.8996 7.35791 29.608 7.61266 30.247C7.86741 30.886 8.33979 31.4143 8.94635 31.7387C9.55291 32.0632 10.2546 32.1628 10.9275 32.0199C11.6004 31.8771 12.2011 31.5011 12.6236 30.9583C13.0461 30.4154 13.2631 29.7407 13.2364 29.0534C13.2096 28.366 12.9408 27.7103 12.4774 27.2019C12.1058 26.7942 11.6281 26.5024 11.1018 26.3563C10.8643 26.2904 10.6589 26.1217 10.6038 25.8815C10.4708 25.2809 10.367 24.6742 10.2927 24.0635C10.2123 23.4462 10.1669 22.825 10.1566 22.2026C10.1529 21.8949 10.3679 21.6326 10.6656 21.5548C10.8751 21.5001 11.0847 21.4488 11.2941 21.4015C11.7228 21.3043 11.9775 21.8099 12.1827 22.2201C12.234 22.321 12.3375 22.3844 12.4506 22.3844H22.0296C23.0502 22.3844 23.9102 21.1741 24.9052 21.4015C25.4255 21.52 25.9487 21.6607 26.467 21.8217C26.4678 21.822 26.4678 21.8231 26.467 21.8233C26.4667 21.8234 26.4664 21.8233 26.4662 21.8231C26.4657 21.8228 26.4653 21.8228 26.4663 21.825C26.4665 21.8253 26.4666 21.8255 26.4667 21.8258C26.4709 21.8403 26.492 21.9045 26.5132 22.0393C26.5375 22.1968 26.5541 22.401 26.5618 22.6469C26.5754 23.1369 26.5473 23.7329 26.4899 24.3338C26.4316 24.9336 26.345 25.514 26.2478 25.9719C26.2134 26.1363 26.0662 26.25 25.8983 26.25H24.9052C24.7247 26.2501 24.5477 26.3004 24.3942 26.3954C24.2407 26.4904 24.1167 26.6262 24.036 26.7876L23.0638 28.7321C22.9961 28.867 22.9608 29.0158 22.9607 29.1667V31.1111C22.9607 31.369 23.0632 31.6163 23.2455 31.7986C23.4278 31.9809 23.6751 32.0833 23.9329 32.0833H24.9052C25.4421 32.0833 25.8774 31.6481 25.8774 31.1111V30.625C25.8774 30.3565 25.6597 30.1389 25.3913 30.1389C25.1228 30.1389 24.9052 29.9213 24.9052 29.6528V29.538C24.9052 29.4447 24.9269 29.3527 24.9686 29.2692L25.0712 29.064C25.3377 28.5311 25.8824 28.1944 26.4782 28.1944H27.2211C27.8169 28.1944 28.3615 28.5311 28.628 29.064L28.7306 29.2692C28.7723 29.3527 28.7941 29.4447 28.7941 29.538V29.6528C28.7941 29.9213 28.5764 30.1389 28.3079 30.1389C28.0395 30.1389 27.8218 30.3565 27.8218 30.625V31.1111C27.8218 31.6481 28.2571 32.0833 28.7941 32.0833H29.7663C30.0241 32.0833 30.2714 31.9809 30.4537 31.7986C30.6361 31.6163 30.7385 31.369 30.7385 31.1111V29.1667C30.7384 29.0158 30.7031 28.867 30.6354 28.7321L29.6632 26.7876C29.5825 26.6262 29.4585 26.4904 29.305 26.3954C29.1515 26.3004 28.9746 26.2501 28.7941 26.25C28.4743 26.25 28.2343 25.9572 28.2838 25.6413C28.3401 25.2824 28.3879 24.9018 28.4246 24.5204C28.4888 23.8651 28.5218 23.1856 28.5053 22.5925C28.5049 22.5798 28.5178 22.571 28.5295 22.5759C32.3954 24.2151 35.5996 26.9036 35.5996 29.7208C35.5996 32.6364 33.236 35 30.3204 35H5.87878C2.96317 35 0.599609 32.6364 0.599609 29.7208C0.599609 27.2127 3.14052 24.8059 6.42629 23.1514C7.27295 22.7251 8.24637 23.364 8.36378 24.3046C8.45322 25.0192 8.57475 25.7299 8.70891 26.3151ZM10.3218 30.1535C10.8449 30.1535 11.2941 29.7257 11.2941 29.1667C11.2941 28.6086 10.8449 28.1799 10.3218 28.1799C9.79878 28.1799 9.34961 28.6076 9.34961 29.1667C9.34961 29.7247 9.79878 30.1535 10.3218 30.1535ZM18.0996 17.5C20.1624 17.5 22.1407 16.6806 23.5993 15.2219C25.0579 13.7633 25.8774 11.785 25.8774 9.72222C25.8774 7.65943 25.0579 5.68112 23.5993 4.2225C22.1407 2.76389 20.1624 1.94444 18.0996 1.94444C16.0368 1.94444 14.0585 2.76389 12.5999 4.2225C11.1413 5.68112 10.3218 7.65943 10.3218 9.72222C10.3218 11.785 11.1413 13.7633 12.5999 15.2219C14.0585 16.6806 16.0368 17.5 18.0996 17.5ZM18.0996 19.4444C23.4692 19.4444 27.8218 15.0918 27.8218 9.72222C27.8218 4.35264 23.4692 0 18.0996 0C12.73 0 8.37739 4.35264 8.37739 9.72222C8.37739 15.0918 12.73 19.4444 18.0996 19.4444Z" fill="white"/>
</svg>
