<svg width="50" height="50" viewBox="0 0 50 50" fill="none" xmlns="http://www.w3.org/2000/svg">
<g clip-path="url(#clip0_1039_3824)">
<path d="M31.75 46.875L21.125 36.4584L24.625 33.027L31.75 40.0123L45.875 26.1643L49.375 29.5956L31.75 46.875ZM45.5 22.5491H40.5V10.2942H35.5V17.6471H10.5V10.2942H5.5V44.6079H20.5V49.5098H5.5C4.125 49.5098 2.94833 49.0303 1.97 48.0711C0.991667 47.112 0.501667 45.9576 0.5 44.6079V10.2942C0.5 8.94612 0.99 7.79252 1.97 6.83337C2.95 5.87422 4.12667 5.39383 5.5 5.3922H15.9375C16.3958 3.96246 17.2917 2.78844 18.625 1.87014C19.9583 0.951836 21.4167 0.491868 23 0.490234C24.6667 0.490234 26.1567 0.950202 27.47 1.87014C28.7833 2.79007 29.6683 3.96409 30.125 5.3922H40.5C41.875 5.3922 43.0525 5.87259 44.0325 6.83337C45.0125 7.79416 45.5017 8.94775 45.5 10.2942V22.5491ZM23 10.2942C23.7083 10.2942 24.3025 10.0589 24.7825 9.58827C25.2625 9.11769 25.5017 8.53599 25.5 7.84318C25.4983 7.15037 25.2583 6.56867 24.78 6.09808C24.3017 5.62749 23.7083 5.3922 23 5.3922C22.2917 5.3922 21.6983 5.62749 21.22 6.09808C20.7417 6.56867 20.5017 7.15037 20.5 7.84318C20.4983 8.53599 20.7383 9.1185 21.22 9.59072C21.7017 10.0629 22.295 10.2974 23 10.2942Z" fill="#4F2263"/>
</g>
<defs>
<clipPath id="clip0_1039_3824">
<rect width="50" height="50" fill="white"/>
</clipPath>
</defs>
</svg>
