<svg width="40" height="40" viewBox="0 0 40 40" fill="none" xmlns="http://www.w3.org/2000/svg">
<path fill-rule="evenodd" clip-rule="evenodd" d="M5.83366 8.33325C5.39163 8.33325 4.96771 8.50885 4.65515 8.82141C4.34259 9.13397 4.16699 9.55789 4.16699 9.99992C4.16699 10.4419 4.34259 10.8659 4.65515 11.1784C4.96771 11.491 5.39163 11.6666 5.83366 11.6666H34.167C34.609 11.6666 35.0329 11.491 35.3455 11.1784C35.6581 10.8659 35.8337 10.4419 35.8337 9.99992C35.8337 9.55789 35.6581 9.13397 35.3455 8.82141C35.0329 8.50885 34.609 8.33325 34.167 8.33325H5.83366ZM4.16699 19.9999C4.16699 19.5579 4.34259 19.134 4.65515 18.8214C4.96771 18.5088 5.39163 18.3333 5.83366 18.3333H34.167C34.609 18.3333 35.0329 18.5088 35.3455 18.8214C35.6581 19.134 35.8337 19.5579 35.8337 19.9999C35.8337 20.4419 35.6581 20.8659 35.3455 21.1784C35.0329 21.491 34.609 21.6666 34.167 21.6666H5.83366C5.39163 21.6666 4.96771 21.491 4.65515 21.1784C4.34259 20.8659 4.16699 20.4419 4.16699 19.9999ZM4.16699 30.0016C4.16699 29.5596 4.34259 29.1356 4.65515 28.8231C4.96771 28.5105 5.39163 28.3349 5.83366 28.3349H34.167C34.609 28.3349 35.0329 28.5105 35.3455 28.8231C35.6581 29.1356 35.8337 29.5596 35.8337 30.0016C35.8337 30.4436 35.6581 30.8675 35.3455 31.1801C35.0329 31.4927 34.609 31.6683 34.167 31.6683H5.83366C5.39163 31.6683 4.96771 31.4927 4.65515 31.1801C4.34259 30.8675 4.16699 30.4436 4.16699 30.0016Z" fill="#4F2263"/>
</svg>
